<svg width="877" height="1015" viewBox="0 0 877 1015" fill="none" xmlns="http://www.w3.org/2000/svg">
<path d="M307.843 857.359L473.937 761.246V528L604.586 452.397V644.623L770.68 740.736L438.491 932.963L307.843 857.359ZM403.063 528V720.227L236.969 816.34L106.32 740.736L272.397 644.623V452.397L403.063 528ZM403.063 102.547V294.773L569.157 390.886L438.491 466.49L201.523 329.358V603.622L70.8742 679.208V294.773L403.063 102.547ZM806.126 679.208L675.46 603.622V370.377L640.031 349.868L473.937 253.754V102.547L806.126 294.773V679.208ZM438.491 0L0 253.754V761.246L438.491 1015L877 761.246V253.754L438.491 0Z" fill="#0069B4" fill-opacity="0.04"/>
</svg>
