<svg width="70" height="70" viewBox="0 0 70 70" fill="none" xmlns="http://www.w3.org/2000/svg">
<path d="M48.75 35.3975C56.1229 35.3975 62.0994 41.3744 62.0996 48.7471C62.0996 56.1202 56.1231 62.0977 48.75 62.0977C41.3769 62.0977 35.4004 56.1202 35.4004 48.7471C35.4006 41.3744 41.3771 35.3975 48.75 35.3975ZM24.3887 29.1982C26.3964 28.4563 28.6036 28.4563 30.6113 29.1982L41.3779 33.1777C41.6155 33.2655 41.8405 33.3747 42.0518 33.502C40.9026 34.0076 39.8216 34.6387 38.8262 35.3789L29.5889 31.9658C28.2411 31.4678 26.7589 31.4678 25.4111 31.9658L14.6445 35.9443C14.2419 36.093 13.9746 36.4773 13.9746 36.9062V51.0811C13.9746 51.51 14.2422 51.8942 14.6445 52.043L25.4111 56.0215C26.7589 56.5195 28.2411 56.5195 29.5889 56.0215L33.1924 54.6885C33.5483 55.6199 33.9847 56.5113 34.4941 57.3535L30.6113 58.7891C28.6036 59.531 26.3964 59.531 24.3887 58.7891L13.6221 54.8096C12.0614 54.2328 11.0254 52.7449 11.0254 51.0811V36.9062C11.0254 35.3461 11.9359 33.9406 13.3359 33.2959L13.6221 33.1777L24.3887 29.1982ZM57.417 42.5811C56.7725 41.9366 55.7275 41.9366 55.083 42.5811L46.25 51.4141L42.417 47.5811C41.7725 46.9366 40.7275 46.9366 40.083 47.5811C39.439 48.2253 39.4391 49.2697 40.083 49.9141L45.083 54.9141C45.7275 55.5582 46.7725 55.5582 47.417 54.9141L57.417 44.9141C58.0609 44.2697 58.061 43.2253 57.417 42.5811ZM39.3887 11.2002C41.3964 10.4582 43.6036 10.4582 45.6113 11.2002L56.3779 15.1797C57.9386 15.7565 58.9746 17.2444 58.9746 18.9082V35.6084C58.0627 34.8978 57.0751 34.2804 56.0254 33.7695V18.9082C56.0254 18.5328 55.8206 18.1916 55.5 18.0127L55.3555 17.9463L44.5889 13.9678C43.2409 13.4697 41.7591 13.4697 40.4111 13.9678L29.6445 17.9463C29.2421 18.095 28.9746 18.4791 28.9746 18.9082V25.4307C27.9952 25.3122 27.0048 25.3122 26.0254 25.4307V18.9082C26.0254 17.2443 27.0614 15.7565 28.6221 15.1797L39.3887 11.2002ZM33.6416 21.9141C33.891 21.1925 34.6445 20.7877 35.3721 20.959L35.5176 21.001L42.1641 23.2988C42.381 23.3738 42.617 23.374 42.834 23.2988L49.4609 21.0029C50.2305 20.7365 51.0702 21.1437 51.3369 21.9131C51.6036 22.6827 51.1962 23.5232 50.4268 23.79L43.7998 26.0859C42.9576 26.3776 42.0423 26.378 41.2002 26.0869L34.5537 23.79C33.7839 23.524 33.3757 22.684 33.6416 21.9141ZM26.0244 43.5264L25.7559 43.4336L19.5537 41.29C18.7838 41.0238 18.3757 40.1839 18.6416 39.4141C18.9077 38.6441 19.7477 38.2357 20.5176 38.502L27.3682 40.8691L27.499 40.915L27.6299 40.8691L34.4609 38.5029C34.8415 38.371 35.2394 38.4037 35.5771 38.5645C34.7763 39.599 34.0949 40.7305 33.5527 41.9385L29.2441 43.4326L28.9746 43.5254V50.5586C28.9746 51.3731 28.3145 52.0331 27.5 52.0332C26.6854 52.0332 26.0245 51.3731 26.0244 50.5586V43.5264Z" fill="#0069B4" stroke="white" stroke-width="0.8"/>
</svg>
