<svg width="70" height="70" viewBox="0 0 70 70" fill="none" xmlns="http://www.w3.org/2000/svg">
<path d="M49.2988 33.0693C49.6913 32.733 50.3107 32.7328 50.7031 33.0693C52.427 34.548 56.3239 37.399 61.2158 37.8418C61.7199 37.8876 62.1006 38.289 62.1006 38.75V47.5C62.1006 52.6292 59.621 56.0977 56.8848 58.373C54.1402 60.6553 51.1508 61.723 50.1992 62.0234C50.0694 62.0644 49.9335 62.0644 49.8037 62.0234C48.8526 61.7232 45.8623 60.6556 43.1172 58.373C40.3808 56.0977 37.9014 52.6292 37.9014 47.5L37.9004 38.75L37.9053 38.6641C37.949 38.2401 38.3127 37.8848 38.7852 37.8418C43.676 37.3988 47.5743 34.548 49.2988 33.0693ZM23.3496 54.1504H30.4004V43.3496H23.3496V54.1504ZM21.875 25.4004H48.125C48.9396 25.4004 49.5996 26.0604 49.5996 26.875V29.5352C48.7201 29.6148 47.8594 29.9575 47.1514 30.5645H47.1504C47.0002 30.6933 46.8328 30.8311 46.6504 30.9766V28.3496H23.3496V34.1504H40.6592C39.9631 34.3447 39.237 34.4868 38.4883 34.5547C36.9861 34.6906 35.567 35.6451 34.9385 37.0996H21.875C21.0604 37.0996 20.4004 36.4396 20.4004 35.625V26.875C20.4004 26.0604 21.0604 25.4004 21.875 25.4004ZM15 15.8496C14.0887 15.8496 13.3496 16.5887 13.3496 17.5C13.3496 18.4113 14.0887 19.1504 15 19.1504H55C55.9111 19.1504 56.6504 18.4113 56.6504 17.5C56.6504 16.5887 55.9111 15.8496 55 15.8496H15ZM12.9004 21.6006L12.7002 21.4844C11.3244 20.6884 10.4004 19.202 10.4004 17.5C10.4004 14.9595 12.4595 12.9004 15 12.9004H55C57.5406 12.9004 59.5996 14.9595 59.5996 17.5C59.5996 19.202 58.6756 20.6884 57.2998 21.4844L57.0996 21.6006V33.3164C55.962 32.7881 54.9627 32.1638 54.1504 31.5811V22.0996H15.8496V54.1504H20.4004V41.875C20.4004 41.0604 21.0604 40.4004 21.875 40.4004H31.875C32.6896 40.4004 33.3496 41.0604 33.3496 41.875V54.1504H35.9023C36.3531 55.2249 36.8996 56.2064 37.5107 57.0996H14.375C13.5604 57.0996 12.9004 56.4396 12.9004 55.625V21.6006Z" fill="#0069B4" stroke="white" stroke-width="0.8"/>
</svg>
