<svg width="70" height="70" viewBox="0 0 70 70" fill="none" xmlns="http://www.w3.org/2000/svg">
<path d="M53.0322 36.957C55.1075 34.8815 58.4726 34.8815 60.5479 36.957C62.6229 39.0323 62.623 42.3964 60.5479 44.4717L45.792 59.2275C44.9828 60.0367 43.9692 60.6112 42.8594 60.8887L38.2822 62.0322C36.5851 62.4567 35.0477 60.9198 35.4717 59.2227L36.6162 54.6455C36.8939 53.5354 37.4675 52.5218 38.2764 51.7129L53.0322 36.957ZM30.625 10.4004H39.375C42.0636 10.4004 44.2791 12.4316 44.5684 15.043L44.5908 15.252L44.5869 15.2529V15.2676H44.5879C44.596 15.3852 44.5996 15.5044 44.5996 15.625H44.6006V15.6387L45.4004 15.625C45.4004 15.5492 45.3944 15.4738 45.3916 15.3984L49.375 15.4004C52.2606 15.4004 54.5996 17.7393 54.5996 20.625V32.3828C53.555 32.6567 52.5518 33.1295 51.6504 33.8018V20.625C51.6504 19.3686 50.6314 18.3496 49.375 18.3496L44.0527 18.3506H43.8389L43.7197 18.5283C42.7818 19.9291 41.1858 20.8496 39.375 20.8496H30.625C28.8141 20.8496 27.2183 19.9292 26.2803 18.5283L26.1611 18.3506H25.9473L20.625 18.3496C19.3686 18.3496 18.3496 19.3686 18.3496 20.625V54.375C18.3496 55.6314 19.3686 56.6504 20.625 56.6504H32.7158L32.2725 58.4219C32.1733 58.8187 32.119 59.2126 32.1045 59.5996H20.625C17.7393 59.5996 15.4004 57.2606 15.4004 54.375V20.625C15.4004 17.7393 17.7393 15.4004 20.625 15.4004L25.0342 15.3984H25.3926L25.4316 15.043C25.721 12.4315 27.9363 10.4004 30.625 10.4004ZM25 47.9004H37.4238L35.9453 49.3789C35.4948 49.8294 35.0952 50.324 34.7451 50.8496H25C24.1854 50.8496 23.5254 50.1896 23.5254 49.375C23.5254 48.5604 24.1854 47.9004 25 47.9004ZM25 37.9004H35C35.8146 37.9004 36.4746 38.5604 36.4746 39.375C36.4746 40.1896 35.8146 40.8496 35 40.8496H25C24.1854 40.8496 23.5254 40.1896 23.5254 39.375C23.5254 38.5604 24.1854 37.9004 25 37.9004ZM25 27.9004H45C45.8146 27.9004 46.4746 28.5604 46.4746 29.375C46.4746 30.1896 45.8146 30.8496 45 30.8496H25C24.1854 30.8496 23.5254 30.1896 23.5254 29.375C23.5254 28.5604 24.1854 27.9004 25 27.9004ZM30.625 13.3496C29.3686 13.3496 28.3496 14.3686 28.3496 15.625C28.3496 16.8814 29.3686 17.9004 30.625 17.9004H39.375C40.6314 17.9004 41.6504 16.8814 41.6504 15.625C41.6504 14.3686 40.6314 13.3496 39.375 13.3496H30.625Z" fill="#0069B4" stroke="white" stroke-width="0.8"/>
</svg>
