<svg width="70" height="70" viewBox="0 0 70 70" fill="none" xmlns="http://www.w3.org/2000/svg">
<path d="M35.0002 10.4004C48.5866 10.4004 59.5999 21.4138 59.5999 35C59.5999 48.5861 48.5866 59.5996 35.0002 59.5996C27.1057 59.5996 20.0793 55.8812 15.5774 50.0986L15.5549 50.0703C12.3236 45.9069 10.4006 40.6785 10.4006 35C10.4006 22.302 20.0215 11.8508 32.3713 10.5391L32.4016 10.5352L32.4172 10.5342C33.2657 10.4457 34.1279 10.4004 35.0002 10.4004ZM35.0002 13.3496C34.8649 13.3496 34.7298 13.3511 34.595 13.3535L33.9592 13.3652L34.2444 13.9326C34.5456 14.5332 34.8685 15.2424 35.1614 16.0205C36.02 18.3019 36.7667 21.566 35.4241 24.4248C34.1972 27.0371 32.0969 27.7158 30.4602 28.1387L30.2493 28.1934C29.4421 28.4014 28.8377 28.5559 28.3821 28.752C27.9008 28.959 27.5626 29.2217 27.2834 29.6455C26.7451 30.4626 26.8821 31.4581 27.3879 33.1064C27.4244 33.2251 27.4636 33.3505 27.5042 33.4795C27.7084 34.1303 27.9445 34.8834 28.0667 35.585C28.2183 36.457 28.2508 37.513 27.7258 38.5205C27.182 39.564 26.4702 40.2619 25.637 40.7158C24.8467 41.1465 24.0203 41.3136 23.3655 41.4297L23.1331 41.4707C21.9505 41.6788 21.2106 41.7977 20.5413 42.4346L20.4075 42.5693C19.9209 43.0907 19.6218 43.9144 19.4358 45.002L19.3625 45.4844C19.2895 46.0318 19.2457 46.573 19.2014 47.1201L19.178 47.4131C19.1277 48.0225 19.0666 48.6915 18.9377 49.2578L18.9368 49.2637V49.2666L18.8928 49.4688L19.0325 49.6211C22.99 53.9407 28.6791 56.6504 35.0002 56.6504C39.0163 56.6504 42.7785 55.5556 46.0032 53.6494L46.4426 53.3896L46.0842 53.0254C45.9058 52.8437 45.7169 52.6386 45.5266 52.4131L45.3362 52.1807C44.5082 51.1383 43.486 49.4167 43.8411 47.418V47.417C44.0096 46.4686 44.5223 45.6568 45.0452 45.0088C45.5764 44.3504 46.2229 43.7361 46.804 43.2012L47.2004 42.8379C47.6432 42.4336 48.0331 42.0777 48.3684 41.7266C48.5946 41.4895 48.7385 41.3112 48.8293 41.1846C48.8747 41.1213 48.907 41.0702 48.9299 41.0312C48.9414 41.0117 48.9512 40.9951 48.9583 40.9814C48.9617 40.9747 48.9646 40.9689 48.967 40.9639C48.969 40.9599 48.9707 40.9556 48.9709 40.9551L48.9836 40.9277L48.9924 40.8994C49.2083 40.1851 48.9519 39.6129 48.5891 39.332V39.3311L48.4417 39.2354C48.3101 39.1637 48.1568 39.1148 47.9807 39.0996L47.8733 39.0947C47.5766 39.0923 47.1619 39.182 46.6526 39.5049C46.2078 39.7864 45.581 39.9488 44.927 39.6855C44.5146 39.5193 44.2353 39.2374 44.054 38.9951L43.9036 38.7715C43.5803 38.237 43.3888 37.5232 43.2571 36.957C43.1575 36.5294 43.0624 36.0417 42.9739 35.5889V35.5879L42.8713 35.0703C42.7457 34.4487 42.6335 33.9733 42.5188 33.6631L42.5168 33.6562L42.5139 33.6504V33.6494L42.5129 33.6484L42.512 33.6475C42.5115 33.6464 42.5115 33.6448 42.511 33.6436C42.5099 33.6409 42.5087 33.6374 42.5071 33.6338C42.5038 33.6263 42.4989 33.6169 42.4934 33.6055L42.4465 33.5137L42.2698 33.2246C42.1935 33.1085 42.1065 32.9835 42.009 32.8486L41.6858 32.4121C41.5999 32.2982 41.507 32.1773 41.4114 32.0518C41.0071 31.5218 40.5358 30.9039 40.137 30.2959C39.6539 29.5597 39.1404 28.6424 38.9797 27.6885C38.8953 27.1871 38.8991 26.6221 39.0999 26.0547C39.3048 25.4751 39.6802 24.9924 40.179 24.6182C41.4344 23.6766 43.2395 21.6123 44.8098 19.6514C45.5321 18.7494 46.1774 17.9046 46.6575 17.2637L46.9163 16.917L46.551 16.6855C43.2082 14.5729 39.2461 13.3496 35.0002 13.3496ZM48.9983 19.0576C48.5061 19.7139 47.8487 20.5747 47.1116 21.4951C45.6047 23.3768 43.6384 25.6743 42.0559 26.8975L41.8479 27.0576L41.9133 27.3135C41.9933 27.6244 42.209 28.0753 42.6038 28.6768C42.7722 28.9334 42.9518 29.1879 43.1389 29.4424L43.717 30.21C43.8235 30.3496 43.9323 30.4915 44.0403 30.6348C44.4251 31.1446 44.8991 31.7817 45.179 32.3857L45.2864 32.6426C45.4898 33.1937 45.6399 33.878 45.7629 34.4863C45.8059 34.6991 45.8455 34.9025 45.884 35.0996C45.9476 35.4248 46.008 35.7341 46.0725 36.0312L46.1633 36.4482L46.5735 36.3311C47.9654 35.934 49.3317 36.1769 50.3938 36.998C51.7766 38.0674 52.367 39.9311 51.8167 41.752C51.5725 42.5599 50.9941 43.2481 50.5022 43.7637C50.0911 44.1942 49.5955 44.6466 49.134 45.0674H49.1331C49.02 45.1707 48.9082 45.2734 48.802 45.3711C48.2264 45.9009 47.7226 46.3874 47.3411 46.8604C46.9518 47.3429 46.788 47.6937 46.7454 47.9336C46.6177 48.6523 46.9726 49.4983 47.6458 50.3457C47.958 50.7389 48.2891 51.068 48.5442 51.2998L48.5452 51.3008C48.5749 51.3277 48.6042 51.3535 48.6321 51.3779L48.8948 51.6074L49.1575 51.3799C53.7458 47.4106 56.6506 41.5442 56.6506 35C56.6506 28.663 53.9269 22.9617 49.5881 19.0029L49.2629 18.7061L48.9983 19.0576ZM30.4963 13.8193C20.7011 15.8921 13.3499 24.5871 13.3499 35C13.3499 38.5611 14.2106 41.9225 15.7346 44.8867L16.2991 45.9854L16.4856 44.7637C16.6945 43.3921 17.1218 41.7655 18.2512 40.5557C19.6502 39.057 21.3646 38.77 22.5188 38.5811C22.634 38.5621 22.7463 38.5436 22.8499 38.5254H22.8508C23.4729 38.4149 23.8878 38.3092 24.2258 38.125C24.4833 37.9848 24.7474 37.7691 25.0012 37.3496L25.1096 37.1572C25.2048 36.9746 25.262 36.6749 25.1604 36.0908C25.074 35.5942 24.9126 35.0802 24.7161 34.4502C24.6691 34.2995 24.6191 34.1396 24.5676 33.9717C24.0999 32.4476 23.432 30.1292 24.8196 28.0225C26.0277 26.1884 27.9723 25.7072 29.3127 25.3838C29.4561 25.3492 29.5949 25.3163 29.7229 25.2832C30.4283 25.1009 31.0333 24.9131 31.5364 24.5986C32.0556 24.2741 32.4452 23.8289 32.7542 23.1709C33.5141 21.5527 33.2367 19.4528 32.5442 17.457L32.4006 17.0596C32.0195 16.0466 31.5728 15.1587 31.22 14.5225C31.1091 14.3226 31.0085 14.1489 30.9231 14.0059L30.7766 13.7598L30.4963 13.8193Z" fill="#0069B4" stroke="white" stroke-width="0.8"/>
</svg>
