<svg width="263" height="73" viewBox="0 0 263 73" fill="none" xmlns="http://www.w3.org/2000/svg">
<path d="M116.895 47.5622C116.457 47.9111 115.872 48.0842 115.138 48.0842H113.389V43.8861H115.138C115.846 43.8861 116.426 44.0707 116.876 44.4373C117.325 44.8051 117.55 45.3234 117.55 45.9947C117.55 46.6924 117.332 47.2145 116.895 47.5622ZM118.006 50.1182C118.842 49.7251 119.485 49.1714 119.934 48.4559C120.384 47.7404 120.609 46.92 120.609 45.9947C120.609 44.5384 120.108 43.316 119.108 42.3287C118.107 41.3402 116.683 40.8472 114.833 40.8472H110.16V54.1457H113.389V51.1447H114.187C114.606 51.1573 114.934 51.2268 115.176 51.3532C115.416 51.4796 115.608 51.6377 115.755 51.8273C115.9 52.0169 116.169 52.41 116.562 53.0054L117.303 54.1457H120.931L119.887 52.5124C119.05 51.2458 118.424 50.4469 118.006 50.1182ZM202.206 48.1601L196.696 40.8472H194.758V54.1457H197.989V46.8315L203.498 54.1457H205.436V40.8472H202.206V48.1601ZM138.695 40.8472L135.94 48.2359L133.167 40.8472H131.248L128.474 48.2359L125.718 40.8472H122.128L127.543 54.1457H129.48L132.197 47.3827L134.933 54.1457H136.87L142.286 40.8472H138.695ZM184.633 43.8861H186.248V51.0865H184.633V54.1457H191.092V51.0865H189.478V43.8861H191.092V40.8472H184.633V43.8861ZM177.869 50.1473C177.211 50.773 176.363 51.0865 175.324 51.0865H173.709V43.8861H175.324C176.363 43.8861 177.211 44.2034 177.869 44.8367C178.528 45.47 178.858 46.3562 178.858 47.4964C178.858 48.6354 178.528 49.5203 177.869 50.1473ZM175.324 40.8472H170.479V54.1457H175.324C177.211 54.1457 178.81 53.5123 180.121 52.2457C181.432 50.9803 182.088 49.3964 182.088 47.4964C182.088 45.6091 181.432 44.029 180.121 42.756C178.81 41.483 177.211 40.8472 175.324 40.8472ZM103.036 50.2029C102.364 50.8805 101.516 51.2205 100.489 51.2205C99.4766 51.2205 98.6347 50.8805 97.9622 50.2029C97.291 49.5253 96.956 48.6227 96.956 47.4964C96.956 46.3815 97.291 45.4802 97.9622 44.7887C98.6347 44.0985 99.4766 43.7546 100.489 43.7546C101.503 43.7546 102.347 44.0985 103.026 44.7887C103.704 45.4802 104.043 46.3815 104.043 47.4964C104.043 48.6227 103.706 49.5253 103.036 50.2029ZM100.489 40.7144C98.6145 40.7144 97.0192 41.3756 95.702 42.6991C94.3848 44.0226 93.7262 45.6217 93.7262 47.4964C93.7262 49.3711 94.3848 50.9702 95.702 52.2925C97.0192 53.6173 98.6145 54.2784 100.489 54.2784C102.364 54.2784 103.963 53.6173 105.287 52.2925C106.61 50.9702 107.272 49.3711 107.272 47.4964C107.272 45.6217 106.61 44.0226 105.287 42.6991C103.963 41.3756 102.364 40.7144 100.489 40.7144ZM163.744 47.5622C163.307 47.9111 162.722 48.0842 161.987 48.0842H160.239V43.8861H161.987C162.695 43.8861 163.275 44.0707 163.725 44.4373C164.174 44.8051 164.4 45.3234 164.4 45.9947C164.4 46.6924 164.182 47.2145 163.744 47.5622ZM164.855 50.1182C165.691 49.7251 166.334 49.1714 166.783 48.4559C167.233 47.7404 167.458 46.92 167.458 45.9947C167.458 44.5384 166.958 43.316 165.958 42.3287C164.958 41.3402 163.532 40.8472 161.682 40.8472H157.009V54.1457H160.239V51.1447H161.037C161.455 51.1573 161.784 51.2268 162.025 51.3532C162.265 51.4796 162.459 51.6377 162.604 51.8273C162.749 52.0169 163.019 52.41 163.412 53.0054L164.153 54.1457H167.781L166.736 52.5124C165.901 51.2458 165.274 50.4469 164.855 50.1182ZM146.997 49.2447L147.967 46.6608L148.935 49.2447H146.997ZM147.035 40.8472L141.602 54.1457H145.192L145.877 52.3026H150.056L150.74 54.1457H154.332L148.973 40.8472H147.035ZM82.6689 54.1457H85.8988V49.0159H91.2561V45.9567H85.8988V43.8861H91.7693V40.8472H82.6689V54.1457ZM214.916 43.7723C216.056 43.7723 217.031 44.1402 217.841 44.8734L219.932 42.9368C218.564 41.4679 216.891 40.7334 214.916 40.7334C213.041 40.7334 211.446 41.3945 210.128 42.7181C208.811 44.0416 208.153 45.6407 208.153 47.5141C208.153 49.3901 208.811 50.9879 210.128 52.3127C211.446 53.635 213.041 54.2974 214.916 54.2974C216.891 54.2974 218.564 53.5629 219.932 52.0927V46.6027H214.916V49.0349H216.702V50.859C216.157 51.1118 215.562 51.2395 214.916 51.2395C213.903 51.2395 213.06 50.8969 212.389 50.213C211.717 49.5279 211.382 48.6291 211.382 47.5141C211.382 46.4017 211.717 45.4979 212.389 44.8076C213.06 44.1187 213.903 43.7723 214.916 43.7723ZM257.452 28.2894V18.0489H254.222V31.3473H263V28.2894H257.452ZM244.571 26.4464L245.54 23.8625L246.508 26.4464H244.571ZM244.608 18.0489L239.175 31.3473H242.767L243.451 29.5043H247.63L248.314 31.3473H251.905L246.546 18.0489H244.608ZM234.426 27.938C234.211 28.1719 233.869 28.2894 233.4 28.2894H230.759V25.9142H233.4C233.856 25.9142 234.195 26.0305 234.416 26.2656C234.638 26.4995 234.75 26.775 234.75 27.0923C234.75 27.421 234.641 27.7029 234.426 27.938ZM230.759 21.0878H233.172C233.603 21.0878 233.904 21.1965 234.075 21.4114C234.245 21.6263 234.331 21.8614 234.331 22.1142C234.331 22.3671 234.243 22.6022 234.066 22.8184C233.888 23.0333 233.59 23.1407 233.172 23.1407H230.759V21.0878ZM235.756 24.4516C236.846 23.9068 237.389 22.9764 237.389 21.6579C237.389 21.3798 237.359 21.0979 237.294 20.8122C237.231 20.529 237.101 20.2118 236.905 19.8629C236.709 19.5152 236.45 19.2144 236.126 18.9615C235.804 18.7075 235.356 18.4926 234.788 18.3156C234.217 18.1386 233.559 18.0489 232.81 18.0489H227.53V31.3473H232.716C234.527 31.3473 235.825 30.9896 236.61 30.2741C237.395 29.5586 237.789 28.6181 237.789 27.4526C237.789 26.7055 237.601 26.057 237.229 25.5059C236.854 24.9547 236.364 24.6033 235.756 24.4516ZM220.387 27.4046C219.715 28.0834 218.867 28.4222 217.841 28.4222C216.828 28.4222 215.985 28.0834 215.314 27.4046C214.643 26.7283 214.308 25.8257 214.308 24.6981C214.308 23.5831 214.643 22.6818 215.314 21.9904C215.985 21.3002 216.828 20.9563 217.841 20.9563C218.853 20.9563 219.699 21.3002 220.377 21.9904C221.054 22.6818 221.394 23.5831 221.394 24.6981C221.394 25.8257 221.058 26.7283 220.387 27.4046ZM217.841 17.9161C215.966 17.9161 214.371 18.5785 213.054 19.9008C211.736 21.2243 211.078 22.8234 211.078 24.6981C211.078 26.5728 211.736 28.1719 213.054 29.4954C214.371 30.8189 215.966 31.4813 217.841 31.4813C219.716 31.4813 221.315 30.8189 222.638 29.4954C223.962 28.1719 224.623 26.5728 224.623 24.6981C224.623 22.8234 223.962 21.2243 222.638 19.9008C221.315 18.5785 219.716 17.9161 217.841 17.9161ZM209.9 28.2894H204.353V18.0489H201.123V31.3473H209.9V28.2894ZM197.475 23.8056H192.46V26.2365H194.245V28.0606C193.701 28.3135 193.106 28.4411 192.46 28.4411C191.446 28.4411 190.604 28.0998 189.933 27.4147C189.262 26.7308 188.925 25.832 188.925 24.7171C188.925 23.6034 189.262 22.7008 189.933 22.0093C190.604 21.3204 191.446 20.9753 192.46 20.9753C193.6 20.9753 194.575 21.3431 195.385 22.0763L197.475 20.1384C196.107 18.6695 194.436 17.9351 192.46 17.9351C190.585 17.9351 188.989 18.5975 187.673 19.9197C186.354 21.2445 185.697 22.8424 185.697 24.7171C185.697 26.5917 186.354 28.1908 187.673 29.5144C188.989 30.8379 190.585 31.499 192.46 31.499C194.436 31.499 196.107 30.7659 197.475 29.2957V23.8056ZM172.778 31.3473V26.9583L177.356 18.0489H173.689L171.162 22.9498L168.655 18.0489H164.988L169.548 26.9583V31.3473H172.778ZM156.78 21.0878H158.529C159.238 21.0878 159.818 21.2723 160.267 21.6389C160.717 22.0068 160.942 22.5263 160.942 23.1963C160.942 23.8941 160.723 24.4162 160.286 24.7638C159.85 25.1127 159.263 25.2859 158.529 25.2859H156.78V21.0878ZM158.566 28.5549C158.807 28.6813 159 28.8406 159.145 29.0302C159.292 29.2198 159.56 29.6117 159.953 30.2084L160.694 31.3473H164.323L163.278 29.7141C162.442 28.4475 161.815 27.6498 161.397 27.3199C162.234 26.928 162.876 26.3743 163.326 25.6576C163.775 24.9421 164 24.1217 164 23.1963C164 21.7401 163.499 20.5189 162.499 19.5304C161.499 18.5419 160.073 18.0489 158.224 18.0489H153.552V31.3473H156.78V28.3463H157.579C157.996 28.359 158.326 28.4285 158.566 28.5549ZM140.851 30.1414C141.376 30.5788 141.95 30.9112 142.57 31.1388C143.191 31.3663 143.837 31.4813 144.508 31.4813C145.179 31.4813 145.824 31.3663 146.446 31.1388C147.066 30.9112 147.639 30.5788 148.165 30.1414C148.691 29.704 149.108 29.1162 149.419 28.3741C149.729 27.6334 149.884 26.794 149.884 25.8573V18.0489H146.655V25.7612C146.655 26.775 146.44 27.4728 146.009 27.8508C145.578 28.2313 145.078 28.4222 144.508 28.4222C143.938 28.4222 143.438 28.2313 143.006 27.8508C142.577 27.4728 142.362 26.775 142.362 25.7612V18.0489H139.132V25.8573C139.132 26.794 139.286 27.6334 139.597 28.3741C139.907 29.1162 140.325 29.704 140.851 30.1414ZM131.229 31.4813C133.204 31.4813 134.876 30.7469 136.243 29.2767L134.154 27.3388C133.356 28.0606 132.38 28.4222 131.229 28.4222C130.215 28.4222 129.373 28.0796 128.702 27.3957C128.03 26.7118 127.694 25.813 127.694 24.6981C127.694 23.5831 128.03 22.6818 128.702 21.9904C129.373 21.3002 130.215 20.9563 131.229 20.9563C132.369 20.9563 133.344 21.3229 134.154 22.0574L136.243 20.1195C134.876 18.6506 133.204 17.9161 131.229 17.9161C129.354 17.9161 127.759 18.5785 126.441 19.9008C125.124 21.2243 124.466 22.8234 124.466 24.6981C124.466 26.5728 125.124 28.1719 126.441 29.4954C127.759 30.8189 129.354 31.4813 131.229 31.4813ZM115.157 21.0878H116.904C117.613 21.0878 118.193 21.2723 118.642 21.6389C119.092 22.0068 119.317 22.5263 119.317 23.1963C119.317 23.8941 119.098 24.4162 118.662 24.7638C118.225 25.1127 117.638 25.2859 116.904 25.2859H115.157V21.0878ZM115.157 28.3463H115.954C116.373 28.359 116.701 28.4285 116.942 28.5549C117.182 28.6813 117.375 28.8406 117.522 29.0302C117.667 29.2198 117.935 29.6117 118.328 30.2084L119.07 31.3473H122.698L121.653 29.7141C120.817 28.4475 120.19 27.6498 119.772 27.3199C120.609 26.928 121.251 26.3743 121.701 25.6576C122.15 24.9421 122.375 24.1217 122.375 23.1963C122.375 21.7401 121.874 20.5189 120.874 19.5304C119.874 18.5419 118.448 18.0489 116.6 18.0489H111.927V31.3473H115.157V28.3463ZM99.938 31.3473H109.038V28.2894H103.168V26.2176H108.525V23.1597H103.168V21.0878H109.038V18.0489H99.938V31.3473ZM96.1014 31.3473V18.0489H94.1635L89.3751 23.9763L84.6068 18.0489H82.6689V31.3473H85.8988V23.9004L89.3751 28.1744L92.8716 23.9004V31.3473H96.1014Z" fill="white"/>
<path d="M21.9463 60.9821L33.7873 54.1458V37.5555L43.1013 32.178V45.8507L54.9423 52.687L31.2603 66.3597L21.9463 60.9821ZM28.7346 37.5555V51.2282L16.8936 58.0645L7.57964 52.687L19.4193 45.8507V32.178L28.7346 37.5555ZM28.7346 7.29386V20.9665L40.5756 27.8029L31.2603 33.1804L14.3667 23.4265V42.9343L5.05267 48.3106V20.9665L28.7346 7.29386ZM57.4692 48.3106L48.154 42.9343V26.3441L45.6283 24.8853L33.7873 18.049V7.29386L57.4692 20.9665V48.3106ZM31.2603 -8.39233e-05L0 18.049V54.1458L31.2603 72.1948L62.5219 54.1458V18.049L31.2603 -8.39233e-05Z" fill="white"/>
</svg>
