<svg width="209" height="58" viewBox="0 0 209 58" fill="none" xmlns="http://www.w3.org/2000/svg">
<path d="M92.4715 37.6249C92.1255 37.9009 91.6625 38.0379 91.0815 38.0379H89.6985V34.7169H91.0815C91.6415 34.7169 92.1005 34.8629 92.4565 35.1529C92.8115 35.4439 92.9895 35.8539 92.9895 36.3849C92.9895 36.9369 92.8175 37.3499 92.4715 37.6249ZM93.3505 39.6469C94.0115 39.3359 94.5205 38.8979 94.8755 38.3319C95.2315 37.7659 95.4095 37.1169 95.4095 36.3849C95.4095 35.2329 95.0135 34.2659 94.2225 33.4849C93.4305 32.7029 92.3035 32.313 90.8405 32.313H87.1435V42.8329H89.6985V40.4589H90.3295C90.6605 40.4689 90.9205 40.5239 91.1115 40.6239C91.3015 40.7239 91.4535 40.8489 91.5695 40.9989C91.6845 41.1489 91.8975 41.4599 92.2085 41.9309L92.7945 42.8329H95.6645L94.8385 41.5409C94.1765 40.5389 93.6815 39.9069 93.3505 39.6469ZM159.958 38.0979L155.599 32.313H154.066V42.8329H156.622V37.0469L160.98 42.8329H162.513V32.313H159.958V38.0979ZM109.716 32.313L107.537 38.1579L105.343 32.313H103.825L101.631 38.1579L99.4515 32.313H96.6115L100.894 42.8329H102.427L104.576 37.4829L106.74 42.8329H108.273L112.557 32.313H109.716ZM146.056 34.7169H147.334V40.4129H146.056V42.8329H151.166V40.4129H149.889V34.7169H151.166V32.313H146.056V34.7169ZM140.706 39.6699C140.185 40.1649 139.514 40.4129 138.692 40.4129H137.415V34.7169H138.692C139.514 34.7169 140.185 34.9679 140.706 35.4689C141.227 35.9699 141.488 36.6709 141.488 37.5729C141.488 38.4739 141.227 39.1739 140.706 39.6699ZM138.692 32.313H134.86V42.8329H138.692C140.185 42.8329 141.45 42.3319 142.487 41.3299C143.524 40.3289 144.043 39.0759 144.043 37.5729C144.043 36.0799 143.524 34.8299 142.487 33.8229C141.45 32.8159 140.185 32.313 138.692 32.313ZM81.5085 39.7139C80.9765 40.2499 80.3055 40.5189 79.4935 40.5189C78.6925 40.5189 78.0265 40.2499 77.4945 39.7139C76.9635 39.1779 76.6985 38.4639 76.6985 37.5729C76.6985 36.6909 76.9635 35.9779 77.4945 35.4309C78.0265 34.8849 78.6925 34.6129 79.4935 34.6129C80.2955 34.6129 80.9635 34.8849 81.5005 35.4309C82.0365 35.9779 82.3045 36.6909 82.3045 37.5729C82.3045 38.4639 82.0385 39.1779 81.5085 39.7139ZM79.4935 32.2079C78.0105 32.2079 76.7485 32.7309 75.7065 33.7779C74.6645 34.8249 74.1435 36.0899 74.1435 37.5729C74.1435 39.0559 74.6645 40.3209 75.7065 41.3669C76.7485 42.4149 78.0105 42.9379 79.4935 42.9379C80.9765 42.9379 82.2415 42.4149 83.2885 41.3669C84.3355 40.3209 84.8595 39.0559 84.8595 37.5729C84.8595 36.0899 84.3355 34.8249 83.2885 33.7779C82.2415 32.7309 80.9765 32.2079 79.4935 32.2079ZM129.532 37.6249C129.186 37.9009 128.723 38.0379 128.142 38.0379H126.759V34.7169H128.142C128.702 34.7169 129.161 34.8629 129.517 35.1529C129.872 35.4439 130.051 35.8539 130.051 36.3849C130.051 36.9369 129.878 37.3499 129.532 37.6249ZM130.411 39.6469C131.072 39.3359 131.581 38.8979 131.936 38.3319C132.292 37.7659 132.47 37.1169 132.47 36.3849C132.47 35.2329 132.074 34.2659 131.283 33.4849C130.492 32.7029 129.364 32.313 127.901 32.313H124.204V42.8329H126.759V40.4589H127.39C127.721 40.4689 127.981 40.5239 128.172 40.6239C128.362 40.7239 128.515 40.8489 128.63 40.9989C128.745 41.1489 128.958 41.4599 129.269 41.9309L129.855 42.8329H132.725L131.899 41.5409C131.238 40.5389 130.742 39.9069 130.411 39.6469ZM116.284 38.9559L117.051 36.9119L117.817 38.9559H116.284ZM116.314 32.313L112.016 42.8329H114.856L115.398 41.3749H118.704L119.245 42.8329H122.086L117.847 32.313H116.314ZM65.3965 42.8329H67.9515V38.7749H72.1895V36.3549H67.9515V34.7169H72.5955V32.313H65.3965V42.8329ZM170.012 34.6269C170.914 34.6269 171.685 34.9179 172.326 35.4979L173.98 33.966C172.898 32.804 171.575 32.2229 170.012 32.2229C168.529 32.2229 167.267 32.7459 166.225 33.7929C165.183 34.8399 164.662 36.1049 164.662 37.5869C164.662 39.0709 165.183 40.3349 166.225 41.3829C167.267 42.4289 168.529 42.9529 170.012 42.9529C171.575 42.9529 172.898 42.3719 173.98 41.2089V36.8659H170.012V38.7899H171.425V40.2329C170.994 40.4329 170.523 40.5339 170.012 40.5339C169.211 40.5339 168.544 40.2629 168.013 39.7219C167.482 39.1799 167.217 38.4689 167.217 37.5869C167.217 36.7069 167.482 35.9919 168.013 35.4459C168.544 34.9009 169.211 34.6269 170.012 34.6269ZM203.661 22.3789V14.278H201.106V24.798H208.05V22.3789H203.661ZM193.471 20.9209L194.238 18.8769L195.004 20.9209H193.471ZM193.501 14.278L189.203 24.798H192.044L192.585 23.34H195.891L196.432 24.798H199.273L195.034 14.278H193.501ZM185.446 22.1009C185.276 22.2859 185.005 22.3789 184.634 22.3789H182.545V20.5H184.634C184.995 20.5 185.263 20.5919 185.438 20.778C185.614 20.9629 185.702 21.181 185.702 21.4319C185.702 21.6919 185.616 21.9149 185.446 22.1009ZM182.545 16.6819H184.454C184.795 16.6819 185.033 16.768 185.168 16.938C185.303 17.108 185.371 17.2939 185.371 17.4939C185.371 17.694 185.301 17.8799 185.161 18.0509C185.02 18.2209 184.785 18.306 184.454 18.306H182.545V16.6819ZM186.498 19.3429C187.36 18.9119 187.79 18.1759 187.79 17.1329C187.79 16.913 187.766 16.69 187.715 16.464C187.665 16.24 187.562 15.9889 187.407 15.7129C187.252 15.4379 187.047 15.2 186.791 15C186.536 14.799 186.182 14.6289 185.732 14.4889C185.281 14.3489 184.76 14.278 184.168 14.278H179.991V24.798H184.093C185.526 24.798 186.553 24.5149 187.174 23.9489C187.795 23.3829 188.106 22.639 188.106 21.7169C188.106 21.1259 187.958 20.6129 187.663 20.1769C187.367 19.7409 186.979 19.4629 186.498 19.3429ZM174.34 21.6789C173.809 22.216 173.138 22.4839 172.326 22.4839C171.525 22.4839 170.858 22.216 170.327 21.6789C169.796 21.1439 169.531 20.4299 169.531 19.5379C169.531 18.6559 169.796 17.943 170.327 17.396C170.858 16.85 171.525 16.5779 172.326 16.5779C173.127 16.5779 173.796 16.85 174.332 17.396C174.868 17.943 175.137 18.6559 175.137 19.5379C175.137 20.4299 174.871 21.1439 174.34 21.6789ZM172.326 14.173C170.843 14.173 169.581 14.697 168.539 15.743C167.497 16.79 166.976 18.0549 166.976 19.5379C166.976 21.0209 167.497 22.2859 168.539 23.333C169.581 24.38 170.843 24.9039 172.326 24.9039C173.809 24.9039 175.074 24.38 176.121 23.333C177.168 22.2859 177.691 21.0209 177.691 19.5379C177.691 18.0549 177.168 16.79 176.121 15.743C175.074 14.697 173.809 14.173 172.326 14.173ZM166.044 22.3789H161.656V14.278H159.101V24.798H166.044V22.3789ZM156.215 18.832H152.248V20.7549H153.66V22.1979C153.23 22.3979 152.759 22.4989 152.248 22.4989C151.446 22.4989 150.78 22.229 150.249 21.687C149.718 21.146 149.452 20.4349 149.452 19.5529C149.452 18.6719 149.718 17.958 150.249 17.4109C150.78 16.8659 151.446 16.5929 152.248 16.5929C153.15 16.5929 153.921 16.884 154.562 17.464L156.215 15.931C155.133 14.7689 153.811 14.188 152.248 14.188C150.765 14.188 149.502 14.712 148.461 15.7579C147.418 16.806 146.898 18.0699 146.898 19.5529C146.898 21.0359 147.418 22.3009 148.461 23.3479C149.502 24.395 150.765 24.9179 152.248 24.9179C153.811 24.9179 155.133 24.3379 156.215 23.1749V18.832ZM136.678 24.798V21.326L140.3 14.278H137.399L135.4 18.1549L133.417 14.278H130.516L134.123 21.326V24.798H136.678ZM124.023 16.6819H125.406C125.967 16.6819 126.426 16.8279 126.781 17.118C127.137 17.409 127.315 17.8199 127.315 18.3499C127.315 18.9019 127.142 19.315 126.796 19.59C126.451 19.8659 125.987 20.0029 125.406 20.0029H124.023V16.6819ZM125.436 22.5889C125.626 22.6889 125.779 22.815 125.894 22.965C126.01 23.115 126.222 23.4249 126.533 23.8969L127.119 24.798H129.99L129.163 23.5059C128.502 22.5039 128.006 21.8729 127.675 21.6119C128.337 21.302 128.845 20.864 129.201 20.297C129.556 19.731 129.734 19.0819 129.734 18.3499C129.734 17.1979 129.338 16.232 128.547 15.45C127.756 14.668 126.628 14.278 125.165 14.278H121.469V24.798H124.023V22.424H124.655C124.985 22.434 125.246 22.4889 125.436 22.5889ZM111.422 23.8439C111.837 24.1899 112.291 24.4529 112.782 24.6329C113.273 24.813 113.784 24.9039 114.315 24.9039C114.846 24.9039 115.356 24.813 115.848 24.6329C116.338 24.4529 116.792 24.1899 117.208 23.8439C117.624 23.4979 117.954 23.0329 118.2 22.4459C118.445 21.8599 118.568 21.1959 118.568 20.4549V14.278H116.013V20.3789C116.013 21.1809 115.843 21.7329 115.502 22.0319C115.161 22.3329 114.766 22.4839 114.315 22.4839C113.864 22.4839 113.468 22.3329 113.127 22.0319C112.787 21.7329 112.617 21.1809 112.617 20.3789V14.278H110.062V20.4549C110.062 21.1959 110.184 21.8599 110.43 22.4459C110.675 23.0329 111.006 23.4979 111.422 23.8439ZM103.81 24.9039C105.373 24.9039 106.695 24.323 107.777 23.16L106.124 21.6269C105.493 22.1979 104.721 22.4839 103.81 22.4839C103.008 22.4839 102.342 22.2129 101.811 21.6719C101.28 21.1309 101.014 20.4199 101.014 19.5379C101.014 18.6559 101.28 17.943 101.811 17.396C102.342 16.85 103.008 16.5779 103.81 16.5779C104.712 16.5779 105.483 16.8679 106.124 17.4489L107.777 15.916C106.695 14.754 105.373 14.173 103.81 14.173C102.327 14.173 101.065 14.697 100.023 15.743C98.9815 16.79 98.4605 18.0549 98.4605 19.5379C98.4605 21.0209 98.9815 22.2859 100.023 23.333C101.065 24.38 102.327 24.9039 103.81 24.9039ZM91.0965 16.6819H92.4785C93.0395 16.6819 93.4985 16.8279 93.8535 17.118C94.2095 17.409 94.3875 17.8199 94.3875 18.3499C94.3875 18.9019 94.2145 19.315 93.8695 19.59C93.5235 19.8659 93.0595 20.0029 92.4785 20.0029H91.0965V16.6819ZM91.0965 22.424H91.7275C92.0585 22.434 92.3185 22.4889 92.5085 22.5889C92.6985 22.6889 92.8515 22.815 92.9675 22.965C93.0825 23.115 93.2945 23.4249 93.6055 23.8969L94.1925 24.798H97.0625L96.2355 23.5059C95.5745 22.5039 95.0785 21.8729 94.7475 21.6119C95.4095 21.302 95.9175 20.864 96.2735 20.297C96.6285 19.731 96.8065 19.0819 96.8065 18.3499C96.8065 17.1979 96.4105 16.232 95.6195 15.45C94.8285 14.668 93.7005 14.278 92.2385 14.278H88.5415V24.798H91.0965V22.424ZM79.0575 24.798H86.2565V22.3789H81.6125V20.7399H85.8505V18.3209H81.6125V16.6819H86.2565V14.278H79.0575V24.798ZM76.0225 24.798V14.278H74.4895L70.7015 18.9669L66.9295 14.278H65.3965V24.798H67.9515V18.9069L70.7015 22.2879L73.4675 18.9069V24.798H76.0225Z" fill="#0069B4"/>
<path d="M17.361 48.2412L26.728 42.8332V29.7092L34.096 25.4552V36.2712L43.463 41.6792L24.729 52.4952L17.361 48.2412ZM22.731 29.7092V40.5252L13.364 45.9332L5.996 41.6792L15.362 36.2712V25.4552L22.731 29.7092ZM22.731 5.77016V16.5862L32.098 21.9942L24.729 26.2482L11.365 18.5322V33.9642L3.997 38.2172V16.5862L22.731 5.77016ZM45.462 38.2172L38.093 33.9642V20.8402L36.095 19.6862L26.728 14.2782V5.77016L45.462 16.5862V38.2172ZM24.729 0.000160217L0 14.2782V42.8332L24.729 57.1112L49.459 42.8332V14.2782L24.729 0.000160217Z" fill="#0069B4"/>
</svg>
