<svg width="48" height="40" viewBox="0 0 48 40" fill="none" xmlns="http://www.w3.org/2000/svg">
<path d="M17.1416 0C25.7166 0 32.8224 5.26415 34.085 12.1436C33.8462 12.1304 33.6057 12.1279 33.3633 12.1279C24.7426 12.1281 17.749 17.9869 17.749 25.2168C17.749 26.4 17.9424 27.5459 18.2939 28.6367C17.9124 28.6559 17.528 28.6719 17.1416 28.6719C15.2469 28.6718 13.4205 28.4144 11.7178 27.9404C11.6224 27.9122 11.4344 27.8586 11.4268 27.8564L5.22949 31.0127L6.88574 25.8252C6.88574 25.8252 6.78134 25.7592 6.72852 25.7256C2.63772 23.106 0 18.9787 0 14.3359C0.000298874 6.41866 7.67397 0.000180378 17.1416 0ZM11.1768 7.06934C9.84716 7.06934 8.76953 8.11084 8.76953 9.39844C8.76956 10.6848 9.84718 11.7305 11.1768 11.7305C12.5062 11.7303 13.5859 10.6847 13.5859 9.39844C13.5859 8.11094 12.5062 7.06951 11.1768 7.06934ZM23.1064 7.06934C21.7758 7.06948 20.7012 8.11093 20.7012 9.39844C20.7012 10.6847 21.7758 11.7303 23.1064 11.7305C24.436 11.7305 25.5127 10.6848 25.5127 9.39844C25.5127 8.11084 24.436 7.06934 23.1064 7.06934Z" fill="white"/>
<path d="M33.4946 13.1905C41.4901 13.1906 47.9741 18.6133 47.9741 25.3008C47.9741 29.2248 45.7443 32.7111 42.2896 34.9239C42.2452 34.9515 42.1558 35.0069 42.1558 35.0069L43.5552 39.3917L38.3218 36.7227C38.3135 36.7252 38.1553 36.772 38.0747 36.793C36.6372 37.195 35.0941 37.4141 33.4946 37.4141C25.4954 37.4141 19.0093 31.9908 19.0093 25.3008C19.0093 18.6133 25.4954 13.1905 33.4946 13.1905ZM28.4526 19.1622C27.3308 19.1624 26.4194 20.0443 26.4194 21.129C26.4197 22.2183 27.331 23.1014 28.4526 23.1016C29.5769 23.1016 30.4876 22.2184 30.4878 21.129C30.4878 20.0442 29.577 19.1622 28.4526 19.1622ZM38.5308 19.1622C37.4076 19.1622 36.4985 20.0442 36.4985 21.129C36.4988 22.2183 37.4077 23.1016 38.5308 23.1016C39.655 23.1016 40.5647 22.2184 40.5649 21.129C40.5649 20.0442 39.6552 19.1622 38.5308 19.1622Z" fill="white"/>
</svg>
