<svg width="50" height="58" viewBox="0 0 50 58" fill="none" xmlns="http://www.w3.org/2000/svg">
<path d="M17.361 48.241L26.728 42.833V29.709L34.096 25.455V36.271L43.463 41.679L24.729 52.495L17.361 48.241ZM22.731 29.709V40.525L13.364 45.933L5.996 41.679L15.362 36.271V25.455L22.731 29.709ZM22.731 5.77V16.586L32.098 21.994L24.729 26.248L11.365 18.532V33.964L3.997 38.217V16.586L22.731 5.77ZM45.462 38.217L38.093 33.964V20.84L36.095 19.686L26.728 14.278V5.77L45.462 16.586V38.217ZM24.729 0L0 14.278V42.833L24.729 57.111L49.459 42.833V14.278L24.729 0Z" fill="#0069B4"/>
</svg>
