<svg width="70" height="70" viewBox="0 0 70 70" fill="none" xmlns="http://www.w3.org/2000/svg">
<path d="M56.6504 24.2422C58.4368 25.5322 59.5996 27.6295 59.5996 30V43.125C59.5996 49.4626 54.4626 54.5996 48.125 54.5996H22.5C20.1297 54.5996 18.0331 53.4365 16.7432 51.6504H48.125C52.8332 51.6504 56.6504 47.8332 56.6504 43.125V24.2422ZM15.625 17.9004H46.875C49.7606 17.9004 52.0996 20.2393 52.0996 23.125V41.875C52.0996 44.7606 49.7606 47.0996 46.875 47.0996H15.625C12.7393 47.0996 10.4004 44.7606 10.4004 41.875V23.125C10.4004 20.2393 12.7393 17.9004 15.625 17.9004ZM13.3496 41.875C13.3496 43.1314 14.3686 44.1504 15.625 44.1504H17.9004V41.875C17.9004 40.6186 16.8814 39.5996 15.625 39.5996H13.3496V41.875ZM20.8496 23.125C20.8496 26.0107 18.5107 28.3496 15.625 28.3496H13.3496V36.6504H15.625C18.5107 36.6504 20.8496 38.9894 20.8496 41.875V44.1504H41.6504V41.875C41.6504 38.9894 43.9894 36.6504 46.875 36.6504H49.1504V28.3496H46.875C43.9894 28.3496 41.6504 26.0107 41.6504 23.125V20.8496H20.8496V23.125ZM46.875 39.5996C45.6186 39.5996 44.5996 40.6186 44.5996 41.875V44.1504H46.875C48.1314 44.1504 49.1504 43.1314 49.1504 41.875V39.5996H46.875ZM31.25 25.4004C35.1713 25.4004 38.3496 28.5788 38.3496 32.5C38.3496 36.4213 35.1713 39.5996 31.25 39.5996C27.3288 39.5996 24.1504 36.4213 24.1504 32.5C24.1504 28.5788 27.3288 25.4004 31.25 25.4004ZM31.25 28.3496C28.958 28.3496 27.0996 30.2081 27.0996 32.5C27.0996 34.7919 28.958 36.6504 31.25 36.6504C33.5419 36.6504 35.4004 34.7919 35.4004 32.5C35.4004 30.2081 33.5419 28.3496 31.25 28.3496ZM15.625 20.8496C14.3686 20.8496 13.3496 21.8686 13.3496 23.125V25.4004H15.625C16.8814 25.4004 17.9004 24.3814 17.9004 23.125V20.8496H15.625ZM44.5996 23.125C44.5996 24.3814 45.6186 25.4004 46.875 25.4004H49.1504V23.125C49.1504 21.8686 48.1314 20.8496 46.875 20.8496H44.5996V23.125Z" fill="#0069B4" stroke="white" stroke-width="0.8"/>
</svg>
