<svg width="70" height="70" viewBox="0 0 70 70" fill="none" xmlns="http://www.w3.org/2000/svg">
<path d="M18.502 35.7539C19.445 35.2822 20.555 35.2822 21.498 35.7539L30.248 40.1289C31.383 40.6961 32.0996 41.856 32.0996 43.125V54.3828C32.0995 55.6514 31.3829 56.8115 30.248 57.3789L21.498 61.7539C20.555 62.2252 19.445 62.2252 18.502 61.7539L9.75195 57.3789C8.6171 56.8115 7.90051 55.6514 7.90039 54.3828V43.125C7.90039 41.856 8.61708 40.6961 9.75195 40.1289L18.502 35.7539ZM28.9756 43.0117C28.5679 42.1969 27.5766 41.8669 26.7617 42.2744L20 45.6553L13.2383 42.2744C12.4234 41.8669 11.4321 42.1969 11.0244 43.0117C10.6169 43.8267 10.9469 44.8179 11.7617 45.2256L18.3496 48.5195V56.25C18.3496 57.1614 19.0888 57.9004 20 57.9004C20.9112 57.9004 21.6504 57.1614 21.6504 56.25V48.5195L28.2383 45.2256C29.0531 44.8179 29.3831 43.8267 28.9756 43.0117ZM20.625 12.9004H44.375C47.2606 12.9004 49.5996 15.2393 49.5996 18.125V40.4004H59.5996V49.375C59.5996 53.6413 56.1413 57.0996 51.875 57.0996H34.8164C35.1928 56.2595 35.4003 55.3372 35.4004 54.3828V54.1504H46.6504V18.125C46.6504 16.8686 45.6314 15.8496 44.375 15.8496H20.625C19.3686 15.8496 18.3496 16.8686 18.3496 18.125V32.3105C17.8968 32.4266 17.4526 32.5886 17.0264 32.8018L15.4004 33.6143V18.125C15.4004 15.2393 17.7393 12.9004 20.625 12.9004ZM49.5996 54.1504H51.875C54.5122 54.1504 56.6504 52.0122 56.6504 49.375V43.3496H49.5996V54.1504ZM25.625 32.9004H39.375C40.1896 32.9004 40.8496 33.5604 40.8496 34.375C40.8496 35.1896 40.1896 35.8496 39.375 35.8496H29.0684L24.4199 33.5244C24.6873 33.1464 25.1276 32.9004 25.625 32.9004ZM25.625 22.9004H39.375C40.1896 22.9004 40.8496 23.5604 40.8496 24.375C40.8496 25.1896 40.1896 25.8496 39.375 25.8496H25.625C24.8104 25.8496 24.1504 25.1896 24.1504 24.375C24.1504 23.5604 24.8104 22.9004 25.625 22.9004Z" fill="#0069B4" stroke="white" stroke-width="0.8"/>
</svg>
