<svg width="43" height="44" viewBox="0 0 43 44" fill="none" xmlns="http://www.w3.org/2000/svg">
<path d="M21.5859 0C27.3125 0.00247152 32.6879 2.232 36.7295 6.27832C40.7709 10.3243 42.9953 15.7024 42.9932 21.4219C42.9884 33.2219 33.3894 42.8241 21.5869 42.8291H21.5781C17.9954 42.8279 14.4743 41.9291 11.3477 40.2236L0 43.2002L3.03711 32.1074C1.16379 28.8609 0.178081 25.1781 0.179688 21.4053C0.184435 9.60265 9.787 0.000255512 21.5859 0ZM21.5928 3.61523C11.7788 3.61544 3.79706 11.5966 3.79297 21.4062C3.79159 24.7681 4.73275 28.0423 6.51367 30.875L6.93652 31.5488L5.13965 38.1143L11.873 36.3477L12.5234 36.7334C15.2551 38.3544 18.3865 39.2126 21.5791 39.2139H21.5859C31.3926 39.2139 39.374 31.2316 39.3779 21.4209C39.3798 16.6667 37.5311 12.1961 34.1719 8.83301C30.8127 5.47007 26.345 3.61688 21.5928 3.61523ZM14.0078 11.5195C14.3641 11.5195 14.7208 11.5225 15.0322 11.5381C15.3605 11.5546 15.8021 11.414 16.2363 12.457C16.6822 13.5283 17.7511 16.161 17.8848 16.4287C18.0184 16.6964 18.1078 17.0083 17.9297 17.3652C17.7514 17.722 17.662 17.9456 17.3945 18.2578C17.1273 18.5699 16.8333 18.9546 16.5928 19.1943C16.325 19.4611 16.0464 19.7506 16.3584 20.2861C16.6705 20.8217 17.7439 22.5729 19.334 23.9912C21.3768 25.8133 23.0997 26.3787 23.6348 26.6465C24.1694 26.9143 24.4819 26.8696 24.7939 26.5127C25.1061 26.1556 26.1308 24.9504 26.4873 24.415C26.8437 23.8801 27.2005 23.9691 27.6904 24.1475C28.1808 24.3261 30.8106 25.6199 31.3457 25.8877C31.8806 26.1555 32.2374 26.2896 32.3711 26.5127C32.5047 26.7361 32.504 27.8073 32.0586 29.0566C31.6123 30.3058 29.4758 31.4461 28.4482 31.5996C27.5269 31.7373 26.361 31.7947 25.0801 31.3877C24.3032 31.1412 23.3064 30.8119 22.0303 30.2607C16.6646 27.9439 13.16 22.5417 12.8926 22.1846C12.6251 21.8277 10.7091 19.2841 10.709 16.6514C10.709 14.0188 12.0908 12.724 12.5811 12.1885C13.0713 11.6532 13.6513 11.5195 14.0078 11.5195Z" fill="#FDFDFD"/>
</svg>
